HIERARCHY
ROOT Hips
{
	OFFSET 0.000000 0.000000 0.000000 
	CHANNELS 6 Xposition Yposition Zposition Zrotation Yrotation Xrotation
	JOINT LeftUpLeg
	{
		OFFSET 1.363060 -1.794630 0.839290 
		CHANNELS 3 Zrotation Yrotation Xrotation
		JOINT LeftLeg
		{
			OFFSET 2.448110 -6.726130 0.000000 
			CHANNELS 3 Zrotation Yrotation Xrotation
			JOINT LeftFoot
			{
				OFFSET 2.562200 -7.039590 0.000000 
				CHANNELS 3 Zrotation Yrotation Xrotation
				JOINT LeftToeBase
				{
					OFFSET 0.157640 -0.433110 2.322550 
					CHANNELS 3 Zrotation Yrotation Xrotation
					End Site
					{
						OFFSET 0.000000 0.000000 0.000000 
					}
				}
			}
		}
	}
	JOINT RightUpLeg
	{
		OFFSET -1.305520 -1.794630 0.839290 
		CHANNELS 3 Zrotation Yrotation Xrotation
		JOINT RightLeg
		{
			OFFSET -2.542530 -6.985550 0.000000 
			CHANNELS 3 Zrotation Yrotation Xrotation
			JOINT RightFoot
			{
				OFFSET -2.568260 -7.056230 0.000000 
				CHANNELS 3 Zrotation Yrotation Xrotation
				JOINT RightToeBase
				{
					OFFSET -0.164730 -0.452590 2.363150 
					CHANNELS 3 Zrotation Yrotation Xrotation
					End Site
					{
						OFFSET 0.000000 0.000000 0.000000 
					}
				}
			}
		}
	}
	JOINT Spine
	{
		OFFSET 0.028270 2.035590 -0.193380 
		CHANNELS 3 Zrotation Yrotation Xrotation
		JOINT Spine1
		{
			OFFSET 0.056720 2.048850 -0.042750 
			CHANNELS 3 Zrotation Yrotation Xrotation
			JOINT Neck1
			{
				OFFSET -0.054170 1.746240 0.172020 
				CHANNELS 3 Zrotation Yrotation Xrotation
				JOINT Head
				{
					OFFSET 0.104070 1.761360 -0.123970 
					CHANNELS 3 Zrotation Yrotation Xrotation
					End Site
					{
						OFFSET 0.000000 0.000000 0.000000 
					}
				}
			}
			JOINT LeftArm
			{
				OFFSET 3.362410 1.200890 -0.311210 
				CHANNELS 3 Zrotation Yrotation Xrotation
				JOINT LeftForeArm
				{
					OFFSET 4.983000 -0.000000 -0.000000 
					CHANNELS 3 Zrotation Yrotation Xrotation
					JOINT LeftHand
					{
						OFFSET 3.483560 -0.000000 -0.000000 
						CHANNELS 3 Zrotation Yrotation Xrotation
						JOINT LeftHandIndex1
						{
							OFFSET 0.715260 -0.000000 -0.000000 
							CHANNELS 3 Zrotation Yrotation Xrotation
							End Site
							{
								OFFSET 0.000000 0.000000 0.000000 
							}
						}
					}
				}
			}
			JOINT RightArm
			{
				OFFSET -3.136600 1.374050 -0.404650 
				CHANNELS 3 Zrotation Yrotation Xrotation
				JOINT RightForeArm
				{
					OFFSET -5.241900 -0.000000 -0.000000 
					CHANNELS 3 Zrotation Yrotation Xrotation
					JOINT RightHand
					{
						OFFSET -3.444170 -0.000000 -0.000000 
						CHANNELS 3 Zrotation Yrotation Xrotation
						JOINT RightHandIndex1
						{
							OFFSET -0.622530 -0.000000 -0.000000 
							CHANNELS 3 Zrotation Yrotation Xrotation
							End Site
							{
								OFFSET 0.000000 0.000000 0.000000 
							}
						}
					}
				}
			}
		}
	}
}
MOTION
Frames: 7
Frame Time: 0.041667
8.918654 17.722337 -15.083145 5.705325 -1.033461 6.512701 -20.720018 -4.510167 7.591514 -2.319803 3.757650 15.236774 -0.524781 6.068020 15.465661 1.475300 -7.675100 -21.731400 12.683497 13.268245 -32.261934 0.161753 -11.613806 25.068539 4.987848 -21.112120 9.575793 -0.140900 2.419000 -6.665100 0.360277 -1.553000 0.040265 3.302450 -0.618584 -6.413959 4.047833 5.008232 13.203183 -1.145000 2.991300 5.618400 -73.192188 8.633896 45.707866 32.936315 -38.731340 -18.345881 -0.820484 -1.323449 -22.186256 -7.125000 0.000000 0.000000 69.406903 -19.712895 38.007281 -15.378742 22.741730 -4.945646 1.451001 4.633791 -6.096809 7.125000 0.000000 0.000000 
8.856361 17.712931 -14.912257 5.670859 -1.089851 6.402075 -20.633327 -4.100910 7.066911 -2.018314 4.410125 17.000657 -0.541219 6.193565 16.139335 1.647000 -8.088600 -22.983400 13.239827 12.669811 -32.387381 -0.013066 -11.906271 26.046095 4.670967 -20.271641 10.077380 -0.081200 1.838600 -5.059900 0.389978 -1.556120 0.063350 3.287622 -0.607786 -6.335511 3.984843 5.305534 12.911204 -1.186700 3.126900 5.423100 -73.506655 8.904923 45.560231 32.212970 -38.256790 -17.752284 -0.819292 -1.273776 -22.355236 -7.125000 0.000000 0.000000 69.384330 -19.676911 37.950223 -15.210197 22.537741 -4.849218 1.463593 4.605538 -5.965719 7.125000 0.000000 0.000000 
8.790410 17.696417 -14.753390 5.807089 -1.328961 6.221924 -20.751807 -3.797674 6.391264 -1.644003 5.189151 19.080961 -0.603840 6.447363 16.876456 1.370000 -7.407600 -20.928700 13.627561 12.240703 -32.459428 -0.195976 -12.200896 27.078633 4.307030 -19.182302 10.365097 -0.010700 0.668300 -1.836600 0.369801 -1.472433 0.056227 3.301476 -0.529961 -6.495188 3.867890 5.246354 12.678372 -1.272000 3.088300 5.231400 -73.771193 9.178136 45.565526 31.293765 -37.613637 -16.970408 -0.855033 -1.192252 -22.182001 -7.125000 0.000000 0.000000 69.468775 -19.712075 37.942816 -15.110074 22.402389 -4.788686 1.483595 4.594586 -5.970504 7.125000 0.000000 0.000000 
8.729894 17.688787 -14.592327 6.079044 -1.720051 5.973343 -21.084061 -3.259491 5.703631 -1.230600 5.953365 21.121834 -0.718661 6.903744 17.947136 1.067300 -6.567800 -18.441000 13.878051 11.862409 -32.347470 -0.349398 -12.417737 27.951795 3.915590 -17.950303 10.595657 -0.001300 -0.231500 0.636000 0.283818 -1.343210 0.065556 3.212836 -0.442721 -6.622271 3.925415 4.978373 12.927613 -1.237200 2.967300 5.306700 -73.971661 9.428195 45.487429 30.309895 -36.882245 -16.108407 -0.949324 -1.064907 -21.487101 -7.125000 0.000000 0.000000 69.548227 -19.772947 38.178887 -15.107493 22.396163 -4.797299 1.493976 4.681692 -6.116467 7.125000 0.000000 0.000000 
8.671990 17.699343 -14.417259 6.081782 -2.041349 5.751003 -21.205315 -2.732423 4.959408 -0.732834 6.776728 23.311011 -0.981491 7.786571 19.055034 0.987900 -6.326200 -17.733800 14.339423 11.656552 -32.031803 -0.478632 -12.582718 28.709578 3.647413 -16.953694 10.381199 -0.040100 -1.293000 3.555400 0.209629 -1.150170 0.103585 2.904253 -0.348989 -6.595038 4.054541 4.980443 12.926331 -1.183400 2.976900 5.254200 -74.178274 9.797052 45.270797 29.593050 -36.356308 -15.512161 -0.999394 -0.981070 -20.819525 -7.125000 0.000000 0.000000 69.744861 -19.924945 37.994656 -15.147715 22.451290 -4.829585 1.491487 4.743762 -5.878515 7.125000 0.000000 0.000000 
8.604158 17.715753 -14.248357 5.786988 -2.198494 5.592745 -20.894861 -2.348716 4.071406 -0.179472 7.607788 25.505740 -1.267916 8.898507 20.508069 0.944500 -6.189700 -17.335900 15.079600 11.618587 -31.620496 -0.582174 -12.707981 29.343324 3.526842 -16.308753 9.735576 -0.111000 -2.148200 5.915300 0.233802 -1.005217 0.127099 2.720546 -0.274376 -6.585812 4.135616 5.205833 12.864504 -1.183000 3.101900 5.188400 -74.475866 10.229480 44.829689 28.964276 -35.913374 -15.046834 -0.957484 -0.955369 -20.118141 -7.125000 0.000000 0.000000 69.828222 -19.958154 37.819965 -15.070828 22.353207 -4.784215 1.448869 4.717921 -5.666451 7.125000 0.000000 0.000000 
8.534653 17.728190 -14.090012 5.473467 -2.287243 5.433570 -20.468890 -1.870939 3.027839 0.422712 8.441132 27.781082 -1.363987 9.677512 22.199921 0.937400 -6.167000 -17.269800 15.870219 11.448065 -31.198049 -0.656334 -12.773929 29.821228 3.420246 -15.714918 9.079608 -0.111300 -2.150700 5.922300 0.301449 -1.009032 0.169881 2.682994 -0.281384 -6.474943 3.867523 5.290198 13.293001 -1.344700 3.169500 5.464400 -74.633555 10.352548 44.637128 28.173350 -35.299167 -14.420244 -0.932239 -0.940165 -19.944796 -7.125000 0.000000 0.000000 69.721366 -19.690176 37.953227 -14.990881 22.233477 -4.733751 1.379890 4.683658 -5.629687 7.125000 0.000000 0.000000 
